<?xml version="1.0" standalone="no"?>
<!DOCTYPE svg PUBLIC "-//W3C//DTD SVG 20010904//EN"
 "http://www.w3.org/TR/2001/REC-SVG-20010904/DTD/svg10.dtd">
<svg version="1.0" xmlns="http://www.w3.org/2000/svg"
 width="480.000000pt" height="480.000000pt" viewBox="0 0 480.000000 480.000000"
 preserveAspectRatio="xMidYMid meet">
<metadata>
Created by potrace 1.11, written by Peter Selinger 2001-2013
</metadata>
<g transform="translate(0.000000,480.000000) scale(0.100000,-0.100000)"
fill="#000000" stroke="none">
<path d="M1015 4474 c-117 -25 -171 -39 -177 -48 -4 -6 -8 -8 -8 -3 0 10 -94
-38 -162 -85 -111 -74 -217 -199 -272 -318 -13 -27 -25 -48 -27 -46 -2 3 -5
-5 -6 -17 -1 -12 -10 -60 -21 -106 -28 -115 -24 -275 8 -386 41 -141 117 -266
219 -363 51 -49 203 -152 224 -152 7 0 17 -4 23 -8 12 -12 109 -40 159 -47 22
-4 49 -8 60 -10 11 -2 143 -4 293 -4 l272 -1 0 -480 0 -480 -262 -1 c-296 0
-319 -2 -411 -23 -286 -66 -526 -314 -588 -606 -27 -131 -20 -298 20 -413 49
-142 110 -240 215 -340 94 -90 212 -154 355 -193 69 -19 257 -26 331 -13 302
56 558 293 634 586 22 85 25 124 25 421 l1 262 480 0 480 0 1 -267 c1 -148 1
-271 0 -275 -3 -21 30 -162 53 -222 13 -39 22 -75 19 -80 -3 -6 -2 -8 2 -3 5
4 26 -20 47 -54 105 -166 257 -286 428 -338 111 -33 106 -32 225 -36 115 -4
191 7 296 44 242 84 439 301 505 556 19 74 25 265 11 340 -31 162 -116 318
-236 434 -51 48 -203 151 -224 151 -7 0 -17 4 -22 8 -14 12 -112 41 -163 48
-24 3 -51 7 -60 9 -9 2 -140 4 -289 4 l-273 1 0 480 0 480 268 1 c276 0 300 2
392 20 88 18 207 71 288 131 103 74 210 205 256 313 10 22 22 48 27 57 5 10
13 37 19 60 6 24 13 52 16 63 13 48 12 233 -1 300 -66 334 -307 575 -639 640
-350 68 -708 -113 -865 -437 -35 -74 -48 -112 -66 -194 -11 -49 -14 -125 -14
-371 l-1 -263 -480 0 -480 0 -1 268 c0 147 -2 276 -3 287 -17 134 -47 226
-111 335 -100 171 -272 302 -474 362 -63 18 -265 32 -316 22z m245 -335 c111
-33 224 -126 279 -229 53 -99 61 -156 61 -448 l0 -263 -276 1 c-215 2 -288 5
-328 17 -157 47 -269 151 -328 306 -26 67 -32 202 -12 277 31 116 136 250 236
301 109 57 256 72 368 38z m2540 7 c54 -12 167 -77 214 -123 91 -91 137 -195
142 -325 9 -229 -137 -424 -361 -483 -46 -12 -119 -15 -327 -15 l-269 0 1 275
c1 314 6 342 68 448 15 26 46 66 67 89 38 39 135 108 159 112 6 1 27 7 46 13
19 7 46 14 60 17 29 5 163 0 200 -8z m-920 -1746 l0 -480 -480 0 -480 0 0 480
0 480 480 0 480 0 0 -480z m-1280 -1072 c-1 -287 -10 -356 -52 -421 -10 -14
-18 -31 -18 -36 0 -16 -101 -120 -147 -152 -24 -17 -51 -28 -59 -25 -8 3 -13
2 -10 -2 9 -16 -99 -46 -174 -48 -95 -4 -147 8 -235 51 -91 44 -166 119 -210
210 -44 89 -55 140 -51 240 6 166 100 315 247 395 100 53 138 59 437 59 l273
1 -1 -272z m2185 262 c11 -4 38 -13 60 -20 87 -28 192 -113 242 -198 47 -79
66 -142 69 -234 9 -269 -189 -483 -456 -494 -227 -10 -422 134 -488 361 -3 11
-7 150 -9 308 l-4 288 283 -2 c155 -1 292 -5 303 -9z"/>
</g>
</svg>
